<svg width="466" height="23" viewBox="0 0 466 23" fill="none" xmlns="http://www.w3.org/2000/svg">
<path d="M-1.52588e-05 12.4906V11H24.9811V12.4906H-1.52588e-05ZM23.7854 12.4906V11H48.7664V12.4906H23.7854ZM47.5708 12.4906V11H72.5518V12.4906H47.5708ZM71.3562 12.4906V11H96.3372V12.4906H71.3562ZM95.1416 12.4906V11H120.123V12.4906H95.1416ZM118.927 12.4906V11H143.908V12.4906H118.927ZM142.712 12.4906V11H167.693V12.4906H142.712ZM166.498 12.4906V11H191.479V12.4906H166.498ZM190.283 12.4906V11H215.264V12.4906H190.283ZM232.234 22.8944C232.016 21.6026 231.439 20.2114 230.505 18.7209C229.571 17.2105 228.24 15.8094 226.511 14.5177C224.801 13.2259 223.092 12.4011 221.383 12.0434V10.7914C223.072 10.3939 224.692 9.65858 226.242 8.5854C227.812 7.49236 229.124 6.1807 230.177 4.65044C231.25 3.08043 231.936 1.53029 232.234 2.47928e-05H233.486C233.665 0.993702 234.023 2.01719 234.559 3.07049C235.096 4.10391 235.782 5.09759 236.616 6.05152C237.471 6.98558 238.425 7.83021 239.478 8.5854C241.048 9.69832 242.648 10.4336 244.278 10.7914V12.0434C243.185 12.262 242.052 12.7092 240.879 13.3849C239.727 14.0606 238.653 14.8654 237.66 15.7995C236.666 16.7137 235.851 17.6776 235.215 18.6911C234.281 20.1816 233.705 21.5827 233.486 22.8944H232.234ZM250.403 12.4906V11H275.384V12.4906H250.403ZM274.189 12.4906V11H299.17V12.4906H274.189ZM297.974 12.4906V11H322.955V12.4906H297.974ZM321.76 12.4906V11H346.741V12.4906H321.76ZM345.545 12.4906V11H370.526V12.4906H345.545ZM369.33 12.4906V11H394.311V12.4906H369.33ZM393.116 12.4906V11H418.097V12.4906H393.116ZM416.901 12.4906V11H441.882V12.4906H416.901ZM440.687 12.4906V11H465.668V12.4906H440.687Z" fill="#B89668"/>
</svg>
