<?xml version="1.0" encoding="UTF-8"?>
<svg id="Layer_2" data-name="Layer 2" xmlns="http://www.w3.org/2000/svg" viewBox="0 0 608.61 487.53">
  <defs>
    <style>
      .cls-1 {
        fill: #231f20;
      }

      .cls-2 {
        fill: #fff;
      }

      .cls-3 {
        fill: #010101;
      }

      @media (prefers-color-scheme: dark) {
        .cls-1, .cls-3 {
          fill: #fff;
        }

        .cls-2 {
          fill: transparent;
        }
      }
    </style>
  </defs>
  <g id="Layer_1-2" data-name="Layer 1">
    <g>
      <g>
        <path class="cls-2" d="M481.59,392.2l-23.64,5.27-106.71,23.56c2.01-10.62,1.86-21.54-.54-32.39-2.33-10.77-6.82-20.77-13.1-29.53l106.71-23.56,23.64-5.19-5.27-23.64-5.19-23.56-44.95-203.74c-8.37-37.98-46.03-61.92-83.93-53.55l-219.71,48.44-51.07,11.32,1.08.85,24.1,18.37,48.05,36.73,8.91,40.38,5.19,23.64,43.71,197.78c9.07,41.23,49.83,67.27,91.06,58.12l4.57-1.01h.08c.46-.08.93-.23,1.39-.39l200.8-44.25-5.19-23.64ZM274.67,437.93c-13.56,2.94-27.51.47-39.29-6.98-11.78-7.52-19.92-19.14-22.86-32.78l-43.71-197.78-14.1-64.01c-3.64-16.35-11.24-30.84-21.7-42.55l200.8-44.33c24.95-5.5,49.6,10.31,55.1,35.18l44.95,203.67-178.56,39.37v.16c-12.94,2.87-21.16,15.73-18.29,28.67,2.87,12.94,15.65,21.16,28.68,18.29v.16h.08c8.29-1.78,16.74-.31,23.87,4.26,7.13,4.49,12.01,11.55,13.87,19.84,1.78,8.29.31,16.74-4.26,23.87-4.57,7.13-11.62,12.09-19.92,13.87v.08l-4.65,1.01Z"/>
        <path class="cls-1" d="M133,93.83l-28.83,6.36-21.16,4.65-20,4.42-5.04-22.63-5.27-23.95-.16-.62L323.42,2.23c50.92-11.24,101.52,21.08,112.76,72l44.95,203.74,5.19,23.56,5.19,23.64-23.56,5.19-23.64,5.19-5.27-23.64-5.19-23.56-44.95-203.67c-5.5-24.88-30.15-40.69-55.1-35.18l-200.8,44.33Z"/>
        <path class="cls-1" d="M515.61,434.29l-225.83,49.83-4.65,1.01c-7.29,1.63-14.57,2.4-21.85,2.4-18.99,0-37.59-5.35-53.94-15.81-22.63-14.49-38.28-36.89-44.1-63.08l-43.71-197.85-5.19-23.56-5.19-23.64-3.72-16.82,23.64-5.19,23.64-5.19,14.1,64.01,43.71,197.78c2.94,13.64,11.08,25.26,22.86,32.78,11.78,7.44,25.73,9.92,39.29,6.98l4.65-1.01,44.95-9.92,26.97-5.97,106.71-23.56,23.64-5.27,23.56-5.19,5.27,23.64,5.19,23.64Z"/>
      </g>
      <g>
        <path class="cls-2" d="M131.06,141.57c-3.8-17.36-13.64-31.77-26.89-41.38-12.79-9.53-28.75-14.57-45.26-13.72h-.54c-.15.08-.23.08-.39.16-24.1,10.38-38.36,36.73-32.47,63.32,6.66,30.23,36.5,49.21,66.65,42.62l24.18-5.35,23.64-5.27-8.91-40.38ZM86.97,168.93c-17.13,3.72-34.02-7.13-37.82-24.18-3.02-13.56,3.18-27.36,14.96-34.18,20.61.77,38.83,15.73,43.32,36.19l3.72,16.82-24.18,5.35Z"/>
        <path class="cls-1" d="M154.7,136.38c-3.64-16.35-11.24-30.84-21.7-42.55-6.9-7.83-15.03-14.41-24.1-19.53-15.34-8.6-33.25-13.02-51.92-11.93l-4.11.23-.16.08-3.72,1.55C13.42,79.11-6.42,117.39,1.88,155.14c8.29,37.35,41.46,62.93,78.27,62.93,5.66,0,11.47-.62,17.21-1.94l24.18-5.35,47.27-10.39-14.1-64.01ZM111.15,163.58l-24.18,5.35c-17.13,3.72-34.02-7.13-37.82-24.18-3.02-13.56,3.18-27.36,14.96-34.18,20.61.77,38.83,15.73,43.32,36.19l3.72,16.82Z"/>
      </g>
      <g>
        <path class="cls-2" d="M583.12,337.34c-6.67-30.07-36.5-49.06-66.65-42.47l-30.15,6.66-23.64,5.19-23.64,5.19-155.08,34.25-20.46,4.57c7.21-1.16,14.26-.93,21,.62,20.61,4.5,37.82,20.54,42.62,42.47,2.56,11.55,1.32,23.02-2.87,33.17-6.51,16.04-20.38,28.75-38.28,33.09-.47.16-.93.31-1.39.39l202.19-44.64,23.64-5.19,30.15-6.67c30.15-6.66,49.21-36.42,42.55-66.65ZM535.38,380.35l-30.22,6.67-23.56,5.19-23.64,5.27-106.71,23.56c2.01-10.62,1.86-21.54-.54-32.39-2.33-10.77-6.82-20.77-13.1-29.53l106.71-23.56,23.64-5.19,23.56-5.19,30.15-6.67c2.32-.54,4.65-.77,6.9-.77,14.57,0,27.67,10.15,30.92,24.88,3.8,17.05-7.05,34.02-24.1,37.74Z"/>
        <path class="cls-1" d="M606.75,332.14c-9.53-43.09-52.39-70.37-95.48-60.84l-30.15,6.66-47.27,10.39-178.56,39.37v.16l5.19,23.48,5.19,23.48v.16h.08c8.29-1.78,16.74-.31,23.87,4.26,7.13,4.49,12.01,11.55,13.87,19.84,1.78,8.29.31,16.74-4.26,23.87-4.57,7.13-11.62,12.09-19.92,13.87v.08l5.19,23.56h.08l5.19,23.64,225.83-49.83,30.15-6.66c37.35-8.29,62.85-41.46,62.85-78.27,0-5.66-.62-11.47-1.86-17.2ZM457.95,397.48l-106.71,23.56c2.01-10.62,1.86-21.54-.54-32.39-2.33-10.77-6.82-20.77-13.1-29.53l106.71-23.56,23.64-5.19,23.56-5.19,30.15-6.67c2.32-.54,4.65-.77,6.9-.77,14.57,0,27.67,10.15,30.92,24.88,3.8,17.05-7.05,34.02-24.1,37.74l-30.22,6.67-23.56,5.19-23.64,5.27Z"/>
      </g>
      <path class="cls-3" d="M284.51,351.36c0,11.08-7.59,21-18.83,23.48-13.02,2.87-25.81-5.35-28.68-18.29-2.87-12.94,5.35-25.81,18.29-28.67,12.94-2.87,25.81,5.35,28.67,18.29.39,1.78.54,3.49.54,5.19Z"/>
    </g>
  </g>
</svg>