<?xml version="1.0" encoding="UTF-8"?>
<svg id="Layer_2" data-name="Layer 2" xmlns="http://www.w3.org/2000/svg" viewBox="0 0 1576.84 242.37">
  <defs>
    <style>
      .cls-1 {
        fill: #fff;
      }
    </style>
  </defs>
  <g id="Layer_1-2" data-name="Layer 1">
    <g>
      <g>
        <path class="cls-1" d="M466.02,45.08h31.6v122.27h-29.08v-16.03c-6.64,10.76-20.15,18.32-35.72,18.32-24.5,0-42.36-14.88-42.36-46.71V45.08h31.83v71.67c0,17.17,8.47,24.73,21.29,24.73,11.45,0,22.44-9.16,22.44-25.64V45.08Z"/>
        <path class="cls-1" d="M553.49,167.35h-31.83V45.08h29.31v17.4c8.93-12.14,21.52-19.69,37.55-19.69,24.5,0,41.44,16.03,41.44,45.57v79h-31.6v-68.23c0-18.09-7.1-28.16-21.52-28.16-12.59,0-23.36,10.07-23.36,29.77v66.63Z"/>
        <path class="cls-1" d="M663.62,167.35v-95.02h-24.73v-27.25h24.73v-6.64c0-24.27,13.05-38.01,38.47-38.01,7.79,0,14.42,1.37,19.69,3.66v25.19c-3.43-1.37-8.01-2.06-12.14-2.06-8.7,0-14.42,3.43-14.42,11.91v5.95h31.83v27.25h-31.83v95.02h-31.6Z"/>
        <path class="cls-1" d="M727.28,106.21c0-35.72,26.56-63.43,62.05-63.43s62.05,27.71,62.05,63.43-26.56,63.43-62.05,63.43-62.05-27.94-62.05-63.43ZM818.64,106.21c0-22.67-13.51-35.03-29.31-35.03s-29.31,12.36-29.31,35.03,13.51,35.26,29.31,35.26,29.31-12.59,29.31-35.26Z"/>
        <path class="cls-1" d="M867.18,167.35V2.95h32.06v164.4h-32.06Z"/>
        <path class="cls-1" d="M969.53,42.79c14.65,0,27.02,6.41,36.18,18.09V2.95h31.6v164.4h-29.08v-17.63c-9.62,12.82-22.9,19.92-38.7,19.92-32.97,0-54.27-27.71-54.27-63.43s21.29-63.43,54.27-63.43ZM976.63,141.25c15.8,0,28.85-12.37,28.85-35.49s-13.28-34.8-28.85-34.8-28.62,11.91-28.62,35.26,13.05,35.03,28.62,35.03Z"/>
      </g>
      <g>
        <path class="cls-1" d="M1084.56,33.17c-7.56,0-12.82-5.04-12.82-12.14s5.27-11.91,12.82-11.91,13.05,5.04,13.05,11.91-5.27,12.14-13.05,12.14ZM1076.78,169.64V48.97h16.03v120.67h-16.03Z"/>
        <path class="cls-1" d="M1139.05,169.64h-16.03V48.97h14.88v22.67c7.79-14.88,22.44-24.96,39.84-24.96,25.19,0,41.44,16.03,41.44,44.65v78.31h-16.03v-72.81c0-23.13-10.53-36.18-30.22-36.18s-33.89,16.26-33.89,38.7v70.29Z"/>
        <path class="cls-1" d="M1290.18,169.64h-16.71l-46.02-120.67h17.17l37.78,101.89,37.78-101.89h16.49l-46.48,120.67Z"/>
        <path class="cls-1" d="M1358.41,33.17c-7.56,0-12.82-5.04-12.82-12.14s5.27-11.91,12.82-11.91,13.05,5.04,13.05,11.91-5.27,12.14-13.05,12.14ZM1350.63,169.64V48.97h16.03v120.67h-16.03Z"/>
        <path class="cls-1" d="M1458.93,168.49c-6.18,2.52-11.45,3.43-17.4,3.43-19.92,0-35.26-10.3-35.26-36.41V62.48h-28.39v-13.51h28.39V13.25h16.03v35.72h37.78v13.51h-37.78v69.61c0,18.78,9.16,25.19,22.44,25.19,5.04,0,9.16-.92,14.2-2.98v14.2Z"/>
        <path class="cls-1" d="M1466.94,108.27c0-35.26,23.36-61.59,55.41-61.59,34.35,0,56.79,27.71,54.04,66.4h-93.42c1.37,28.62,16.49,46.25,40.07,46.25,20.15,0,34.12-11.22,38.01-30.45h15.8c-5.5,26.79-25.87,43.05-53.58,43.05-33.89,0-56.33-25.42-56.33-63.66ZM1482.97,102.09h76.71c-1.37-27.02-15.34-43.05-37.55-43.05s-37.09,16.71-39.15,43.05Z"/>
      </g>
      <g>
        <g>
          <path class="cls-1" d="M239.42,195.01l-11.75,2.58-53.06,11.71c1.04-5.24.96-10.71-.23-16.11-1.19-5.36-3.43-10.33-6.55-14.64l53.06-11.71,11.71-2.62-2.58-11.71-2.58-11.75-22.35-101.27c-4.16-18.88-22.85-30.79-41.69-26.63l-109.2,24.08-25.43,5.63v.04l.5.39,11.95,9.09h.04l23.93,18.27,4.43,20.11,2.58,11.71,21.73,98.38c4.51,20.46,24.78,33.41,45.24,28.9l2.35-.5,100.5-22.2v-.04l-2.58-11.71ZM136.57,217.71c-6.78,1.5-13.72.27-19.54-3.47-5.86-3.74-9.9-9.52-11.41-16.3l-21.69-98.34-7.01-31.83c-1.81-8.13-5.59-15.34-10.79-21.16l99.84-22.04c12.37-2.7,24.66,5.12,27.4,17.49l22.35,101.27v.04l-88.82,19.58v.08c-6.43,1.46-10.48,7.78-9.06,14.22,1.43,6.47,7.78,10.52,14.22,9.13h.04v.04h.04c4.08-.89,8.28-.15,11.83,2.12,3.54,2.27,6.01,5.74,6.9,9.86.92,4.12.19,8.32-2.08,11.87-2.24,3.51-5.7,5.93-9.75,6.9-.04,0-.12.04-.15.04l-2.31.5Z"/>
          <path class="cls-1" d="M66.13,46.62l-14.37,3.16-10.52,2.31h-.04l-9.86,2.2-2.47-11.21-.12-.46v-.04l-2.54-11.44-.08-.31L160.77,1.11c25.36-5.59,50.48,10.44,56.07,35.76l22.35,101.31,2.58,11.75,2.58,11.71-11.75,2.58-11.71,2.62-2.58-11.71-2.58-11.75v-.04l-22.35-101.27c-2.74-12.37-15.03-20.19-27.4-17.49l-99.84,22.04Z"/>
          <path class="cls-1" d="M256.34,215.9l-112.25,24.78-2.31.5c-3.62.81-7.28,1.19-10.91,1.19-9.4,0-18.65-2.66-26.78-7.86-11.29-7.21-19.07-18.34-21.93-31.37l-21.69-98.34-2.62-11.75-2.58-11.75-1.85-8.36,11.75-2.58,11.75-2.58,7.01,31.83,21.69,98.34c1.5,6.78,5.55,12.56,11.41,16.3,5.82,3.74,12.75,4.97,19.54,3.47l2.31-.5s.12-.04.15-.04l22.16-4.89h.04l13.37-2.97,53.06-11.71,11.75-2.58,11.75-2.58,2.58,11.71,2.58,11.75Z"/>
        </g>
        <g>
          <path class="cls-1" d="M65.17,70.36c-1.93-8.59-6.82-15.76-13.41-20.58-6.36-4.7-14.26-7.24-22.5-6.78h-.23s-.12.04-.15.08c-12.06,5.12-19.11,18.19-16.18,31.44,3.31,15.07,18.15,24.51,33.14,21.19l12.02-2.66,11.75-2.58-4.43-20.11ZM43.21,83.96c-8.48,1.89-16.92-3.51-18.77-12.02-1.5-6.74,1.58-13.6,7.44-16.96,10.25.35,19.31,7.78,21.54,17.96l1.85,8.36-12.06,2.66Z"/>
          <path class="cls-1" d="M76.92,67.78c-1.81-8.13-5.59-15.34-10.79-21.16-3.39-3.89-7.44-7.13-11.94-9.67-7.63-4.32-16.57-6.51-25.9-5.97l-2.04.12-.04.04-1.85.77C6.64,39.34-3.19,58.33.93,77.14c4.08,18.57,20.62,31.25,38.88,31.25,2.85,0,5.7-.31,8.59-.92l12.06-2.66,11.71-2.62,11.75-2.58-7.01-31.83ZM55.27,81.3l-12.06,2.66c-8.48,1.89-16.92-3.51-18.77-12.02-1.5-6.74,1.58-13.6,7.44-16.96,10.25.35,19.31,7.78,21.54,17.96l1.85,8.36Z"/>
        </g>
        <g>
          <path class="cls-1" d="M289.9,167.73c-3.28-14.99-18.11-24.43-33.1-21.12l-15.03,3.31-11.75,2.58-11.71,2.62-77.11,16.99-10.17,2.27c3.58-.58,7.09-.46,10.44.31,10.25,2.24,18.77,10.21,21.16,21.12,1.27,5.74.65,11.44-1.39,16.45h-.04c-3.31,8.17-10.44,14.6-19.73,16.65l100.54-22.2,11.75-2.58,14.99-3.31c14.99-3.28,24.47-18.11,21.16-33.1ZM266.16,189.12l-14.99,3.31-11.75,2.58-11.75,2.58-53.06,11.71c1.04-5.24.96-10.71-.23-16.11-1.19-5.36-3.43-10.33-6.55-14.64l53.06-11.71,11.71-2.62,11.75-2.58,15.03-3.31c1.16-.27,2.31-.39,3.43-.39,7.24,0,13.76,5.05,15.37,12.37,1.85,8.48-3.54,16.92-12.02,18.8Z"/>
          <path class="cls-1" d="M301.65,165.11c-4.74-21.43-26.01-34.99-47.44-30.25l-15.03,3.31-11.75,2.58-11.71,2.58v.04l-88.82,19.58v.08h.04l2.58,11.68,2.58,11.68v.04h.04c4.08-.89,8.28-.15,11.83,2.12,3.54,2.27,6.01,5.74,6.9,9.86.92,4.12.19,8.32-2.08,11.87-2.24,3.51-5.7,5.93-9.75,6.9-.04,0-.12.04-.15.04l2.58,11.71.04.04,2.58,11.71,112.25-24.78,15.03-3.31c18.54-4.08,31.21-20.58,31.21-38.88,0-2.81-.27-5.7-.92-8.59ZM174.38,193.2c-1.19-5.36-3.43-10.33-6.55-14.64l53.06-11.71,11.71-2.62,11.75-2.58,15.03-3.31c1.16-.27,2.31-.39,3.43-.39,7.24,0,13.76,5.05,15.37,12.37,1.85,8.48-3.54,16.92-12.02,18.8l-14.99,3.31-11.75,2.58-11.75,2.58-53.06,11.71c1.04-5.24.96-10.71-.23-16.11Z"/>
        </g>
        <path class="cls-1" d="M141.47,174.71c0,5.47-3.78,10.4-9.36,11.68h-.04c-6.44,1.39-12.79-2.66-14.22-9.13-1.43-6.44,2.62-12.75,9.06-14.22h.04c6.44-1.43,12.83,2.62,14.26,9.09.19.85.27,1.73.27,2.58Z"/>
      </g>
    </g>
  </g>
</svg>